<svg width="1280" height="320" viewBox="0 0 1280 320" fill="none" xmlns="http://www.w3.org/2000/svg">
  <rect width="1280" height="320" fill="#0F172A"/>
  <g transform="translate(40,20)">
    <rect x="0" y="0" width="280" height="280" rx="62" fill="#0F172A"/>
    <path d="M56 112L140 44L224 112" stroke="white" stroke-width="20" stroke-linecap="round" stroke-linejoin="round"/>
    <path d="M74 112V214C74 228 85 240 99 240H181C195 240 206 228 206 214V112L140 96L74 112Z" fill="white"/>
    <path d="M112 130V118C112 102 126 88 142 88C158 88 172 102 172 118V130C172 139 166 147 158 151V208C158 216 151 223 142 223C133 223 126 216 126 208V151C118 147 112 139 112 130Z" fill="#0F172A"/>
    <circle cx="142" cy="208" r="6.5" fill="white"/>
    <path d="M162 192L208 126H185L216 88L175 88L135 154H159L130 192H162Z" fill="#0F172A"/>
  </g>

  <g transform="translate(370,64)">
    <text x="0" y="122" fill="white" font-family="Inter, Arial, sans-serif" font-size="96" font-weight="800" letter-spacing="1">BRZIMAJSTOR.ME</text>
    <text x="4" y="182" fill="#CBD5E1" font-family="Inter, Arial, sans-serif" font-size="34" font-weight="600" letter-spacing="9">BRZO. POUZDANO. PROFESIONALNO.</text>
  </g>
</svg>
