<svg width="1024" height="1024" viewBox="0 0 1024 1024" fill="none" xmlns="http://www.w3.org/2000/svg">
  <rect width="1024" height="1024" fill="white"/>
  <g transform="translate(232,96)">
    <rect x="0" y="0" width="560" height="560" rx="120" fill="white"/>
    <path d="M112 224L280 88L448 224" stroke="#0F172A" stroke-width="36" stroke-linecap="round" stroke-linejoin="round"/>
    <path d="M148 224V428C148 456 170 480 198 480H280V192L148 224Z" fill="#0F2E63"/>
    <path d="M412 224V428C412 456 390 480 362 480H280V192L412 224Z" fill="#2563EB"/>
    <path d="M280 192V480" stroke="white" stroke-width="12"/>
    <path d="M224 260V236C224 204 248 180 280 180C312 180 336 204 336 236V260C336 279 324 294 306 302V410C306 427 293 440 276 440C259 440 246 427 246 410V302C233 294 224 279 224 260Z" fill="white"/>
    <circle cx="276" cy="410" r="13" fill="#0F2E63"/>
    <path d="M320 380L412 248H368L430 172L348 172L268 304H316L258 380H320Z" fill="#2563EB"/>
  </g>

  <g transform="translate(96,704)">
    <text x="0" y="82" fill="#0F172A" font-family="Inter, Arial, sans-serif" font-size="104" font-weight="800" letter-spacing="1">BRZIMAJSTOR</text>
    <text x="768" y="82" fill="#2563EB" font-family="Inter, Arial, sans-serif" font-size="104" font-weight="800" letter-spacing="1">.ME</text>
    <text x="86" y="144" fill="#334155" font-family="Inter, Arial, sans-serif" font-size="34" font-weight="600" letter-spacing="7">BRZO. POUZDANO. PROFESIONALNO.</text>
  </g>
</svg>
